<svg xmlns="http://www.w3.org/2000/svg" xmlns:xlink="http://www.w3.org/1999/xlink" version="1.1" x="0px" y="0px" viewBox="0 0 100 125" enable-background="new 0 0 100 100" xml:space="preserve"><path fill="#000000" d="M63.7,76.2c-1.3,0-2.4-1.1-2.4-2.4V51.9l-10,9.8c-0.9,0.9-2.5,0.9-3.4,0l-10-9.8v21.9c0,1.3-1.1,2.4-2.4,2.4  s-2.4-1.1-2.4-2.4V46.1c0-1,0.6-1.9,1.5-2.2c0.9-0.4,1.9-0.2,2.7,0.5l12.5,12.2L62,44.3c0.7-0.7,1.8-0.9,2.7-0.5  c0.9,0.4,1.5,1.3,1.5,2.2v27.7C66.1,75.2,65,76.2,63.7,76.2z"/><path fill="#000000" d="M77.9,76.2c-1.3,0-2.4-1.1-2.4-2.4V46.1c0-1.3,1.1-2.4,2.4-2.4s2.4,1.1,2.4,2.4v27.7  C80.3,75.2,79.2,76.2,77.9,76.2z"/><path fill="#000000" d="M21.1,76.2c-1.3,0-2.4-1.1-2.4-2.4V46.1c0-1.3,1.1-2.4,2.4-2.4c1.3,0,2.4,1.1,2.4,2.4v27.7  C23.6,75.2,22.5,76.2,21.1,76.2z"/><path fill="#000000" d="M80.9,84.5H18.1c-1.3,0-2.4-1.1-2.4-2.4c0-1.3,1.1-2.4,2.4-2.4h62.8c1.3,0,2.4,1.1,2.4,2.4  C83.3,83.4,82.2,84.5,80.9,84.5z"/><path fill="#000000" d="M87.8,92.5H11.2c-1.3,0-2.4-1.1-2.4-2.4c0-1.3,1.1-2.4,2.4-2.4h76.7c1.3,0,2.4,1.1,2.4,2.4  C90.3,91.4,89.2,92.5,87.8,92.5z"/><path fill="#000000" d="M89.9,40.3C89.8,40.3,89.8,40.3,89.9,40.3H9.2c-1.1,0-2-0.7-2.3-1.7c-0.3-1,0.1-2.1,1-2.7L48.1,9.3  c0.8-0.5,1.9-0.5,2.7,0l39.9,26.3c0.9,0.4,1.6,1.2,1.6,2.3C92.3,39.2,91.2,40.3,89.9,40.3z M17.3,35.4h64.3L49.5,14.2L17.3,35.4z"/><text x="0" y="115" fill="#000000" font-size="5px" font-weight="bold" font-family="'Helvetica Neue', Helvetica, Arial-Unicode, Arial, Sans-serif">Created by Jan Steinbach</text><text x="0" y="120" fill="#000000" font-size="5px" font-weight="bold" font-family="'Helvetica Neue', Helvetica, Arial-Unicode, Arial, Sans-serif">from the Noun Project</text></svg>